<svg version="1.1" id="Layer_1" xmlns="http://www.w3.org/2000/svg" xmlns:xlink="http://www.w3.org/1999/xlink" x="0px" y="0px" width="30%" height="30%" viewBox="0 0 432.1 257" enable-background="new 0 0 432.1 257" xml:space="preserve">
<g>
	<g id="X">
	<path stroke="#000000" stroke-miterlimit="10" d="M248.9,0.9c-3.7,5.1-7.4,10.2-11.2,15.3c-35.7,47.4-71.4,94.7-107.1,142.1
		c-5.2,7-5.2,8.4-0.2,15.4c18.6,26.2,37.3,52.4,55.9,78.6c0.9,1.3,1.7,2.6,3,4.6c-2.2,0.3-3.4,0.6-4.7,0.6c-13.2,0-26.3-0.1-39.5,0
		c-8.2,0.1-14.2-3.1-18.6-10.3c-8.1-13.4-16.7-26.4-25.2-39.6c-1-1.5-2.1-2.9-3.7-4.9c-1.6,1.9-3,3.3-4.1,4.9
		c-10.5,14.2-21,28.4-31.3,42.7c-3.2,4.5-6.8,6.5-12.5,6.4c-15.3-0.4-30.6-0.1-47-0.1c1.3-2.1,2.1-3.4,3-4.6
		c20.4-26.2,40.7-52.3,61.1-78.4c5.7-7.3,6-8.6,0.6-16.3c-19.9-28.3-40-56.5-60-84.8c-0.7-0.9-1.3-1.9-2.4-3.5
		c1.9-0.2,3.3-0.5,4.7-0.5c12.8-0.1,25.7,0,38.5-0.1c7.3-0.1,12.6,3,16.6,9.1c10.4,15.7,21.1,31.2,31.7,46.7
		c1.2,1.7,2.6,3.3,4.4,5.7c2.1-2.7,4-4.8,5.5-7c23.5-33.3,47-66.7,70.6-100c2.5-3.5,5.3-6.8,7.8-10.4c3.6-5.1,7.7-9.6,13.9-11.5
		C215.6,0.9,232.3,0.9,248.9,0.9z" class="X-CORE-LOGO"></path>
</g>
	<path id="C" stroke="#000000" stroke-miterlimit="10" d="M163,166.1c0-19.8,16.2-36.5,35.1-36.5c9.5,0,18.3,4.1,24.6,10.8l-5.3,5.6
		c-5-5.4-11.9-8.9-19.4-8.9c-14.8,0-27.2,13.4-27.2,29.1c0,15.8,12.5,29.2,27.2,29.2c7.5,0,14.4-3.5,19.4-8.9l5.3,5.6
		c-6.4,6.6-15.2,10.8-24.6,10.8C179.1,202.7,163,186,163,166.1z" class="C-CORE"></path>
	<path id="O" stroke="#000000" stroke-miterlimit="10" d="M229.3,166.1c0-19.8,16.2-36.5,35.1-36.5c19.1,0,35,16.7,35,36.5
		c0,19.8-16,36.6-35,36.6C245.5,202.7,229.3,186,229.3,166.1z M291.6,166.1c0-15.7-12.4-29.1-27.1-29.1c-14.8,0-27.2,13.4-27.2,29.1
		c0,15.8,12.5,29.2,27.2,29.2C279.2,195.3,291.6,182,291.6,166.1z" class="O-CORE"></path>
	<path id="R" stroke="#000000" stroke-miterlimit="10" d="M347,175.4l17.8,26.1h-8.9l-17.4-25.4h-18.2v25.4h-7.8v-70.6h27.8
		c14.2,0,25.2,9.4,25.2,22.6C365.6,164.6,357.8,173,347,175.4z M320.3,168.5H339c11.2,0,18.8-5.6,18.8-15s-7.6-15-18.8-15h-18.7
		V168.5z" class="R-CORE"></path>
	<path id="E" stroke="#000000" stroke-miterlimit="10" d="M385.3,138.5v23.2h37.2v7.6h-37.2v24.6h41.3v7.6h-49.2v-70.6h49.2v7.6
		H385.3z" class="E-CORE"></path>
</g>
  <style data="XCore">
@-webkit-keyframes animate-svg-stroke-1 {
  0% {
    stroke-dashoffset: 1130.359619140625px;
    stroke-dasharray: 1130.359619140625px;
  }

  100% {
    stroke-dashoffset: 0;
  }
}

@keyframes animate-svg-stroke-1 {
  0% {
    stroke-dashoffset: 1130.359619140625px;
    stroke-dasharray: 1130.359619140625px;
  }

  100% {
    stroke-dashoffset: 0;
  }
}

@-webkit-keyframes animate-svg-fill-1 {
  0% {
    fill: transparent;
  }

  100% {
    fill: rgb(0, 0, 0);
  }
}

@keyframes animate-svg-fill-1 {
  0% {
    fill: transparent;
  }

  100% {
    fill: rgb(0, 0, 0);
  }
}

.X-CORE-LOGO {
  -webkit-animation: animate-svg-stroke-1 1s cubic-bezier(0.47, 0, 0.745, 0.715) 0s both,
                       animate-svg-fill-1 0.7s cubic-bezier(0.47, 0, 0.745, 0.715) 0.8s both;
          animation: animate-svg-stroke-1 1s cubic-bezier(0.47, 0, 0.745, 0.715) 0s both,
               animate-svg-fill-1 0.7s cubic-bezier(0.47, 0, 0.745, 0.715) 0.8s both;
}

@-webkit-keyframes animate-svg-stroke-2 {
  0% {
    stroke-dashoffset: 317.1721496582031px;
    stroke-dasharray: 317.1721496582031px;
  }

  100% {
    stroke-dashoffset: 0;
  }
}

@keyframes animate-svg-stroke-2 {
  0% {
    stroke-dashoffset: 317.1721496582031px;
    stroke-dasharray: 317.1721496582031px;
  }

  100% {
    stroke-dashoffset: 0;
  }
}

@-webkit-keyframes animate-svg-fill-2 {
  0% {
    fill: transparent;
  }

  100% {
    fill: rgb(0, 0, 0);
  }
}

@keyframes animate-svg-fill-2 {
  0% {
    fill: transparent;
  }

  100% {
    fill: rgb(0, 0, 0);
  }
}

.C-CORE {
  -webkit-animation: animate-svg-stroke-2 1s cubic-bezier(0.47, 0, 0.745, 0.715) 0.12s both,
                       animate-svg-fill-2 0.7s cubic-bezier(0.47, 0, 0.745, 0.715) 0.9s both;
          animation: animate-svg-stroke-2 1s cubic-bezier(0.47, 0, 0.745, 0.715) 0.12s both,
               animate-svg-fill-2 0.7s cubic-bezier(0.47, 0, 0.745, 0.715) 0.9s both;
}

@-webkit-keyframes animate-svg-stroke-3 {
  0% {
    stroke-dashoffset: 402.79364013671875px;
    stroke-dasharray: 402.79364013671875px;
  }

  100% {
    stroke-dashoffset: 0;
  }
}

@keyframes animate-svg-stroke-3 {
  0% {
    stroke-dashoffset: 402.79364013671875px;
    stroke-dasharray: 402.79364013671875px;
  }

  100% {
    stroke-dashoffset: 0;
  }
}

@-webkit-keyframes animate-svg-fill-3 {
  0% {
    fill: transparent;
  }

  100% {
    fill: rgb(0, 0, 0);
  }
}

@keyframes animate-svg-fill-3 {
  0% {
    fill: transparent;
  }

  100% {
    fill: rgb(0, 0, 0);
  }
}

.O-CORE {
  -webkit-animation: animate-svg-stroke-3 1s cubic-bezier(0.47, 0, 0.745, 0.715) 0.24s both,
                       animate-svg-fill-3 0.7s cubic-bezier(0.47, 0, 0.745, 0.715) 1s both;
          animation: animate-svg-stroke-3 1s cubic-bezier(0.47, 0, 0.745, 0.715) 0.24s both,
               animate-svg-fill-3 0.7s cubic-bezier(0.47, 0, 0.745, 0.715) 1s both;
}

@-webkit-keyframes animate-svg-stroke-4 {
  0% {
    stroke-dashoffset: 413.54534912109375px;
    stroke-dasharray: 413.54534912109375px;
  }

  100% {
    stroke-dashoffset: 0;
  }
}

@keyframes animate-svg-stroke-4 {
  0% {
    stroke-dashoffset: 413.54534912109375px;
    stroke-dasharray: 413.54534912109375px;
  }

  100% {
    stroke-dashoffset: 0;
  }
}

@-webkit-keyframes animate-svg-fill-4 {
  0% {
    fill: transparent;
  }

  100% {
    fill: rgb(0, 0, 0);
  }
}

@keyframes animate-svg-fill-4 {
  0% {
    fill: transparent;
  }

  100% {
    fill: rgb(0, 0, 0);
  }
}

.R-CORE {
  -webkit-animation: animate-svg-stroke-4 1s cubic-bezier(0.47, 0, 0.745, 0.715) 0.36s both,
                       animate-svg-fill-4 0.7s cubic-bezier(0.47, 0, 0.745, 0.715) 1.1s both;
          animation: animate-svg-stroke-4 1s cubic-bezier(0.47, 0, 0.745, 0.715) 0.36s both,
               animate-svg-fill-4 0.7s cubic-bezier(0.47, 0, 0.745, 0.715) 1.1s both;
}

@-webkit-keyframes animate-svg-stroke-5 {
  0% {
    stroke-dashoffset: 398.6000671386719px;
    stroke-dasharray: 398.6000671386719px;
  }

  100% {
    stroke-dashoffset: 0;
  }
}

@keyframes animate-svg-stroke-5 {
  0% {
    stroke-dashoffset: 398.6000671386719px;
    stroke-dasharray: 398.6000671386719px;
  }

  100% {
    stroke-dashoffset: 0;
  }
}

@-webkit-keyframes animate-svg-fill-5 {
  0% {
    fill: transparent;
  }

  100% {
    fill: rgb(0, 0, 0);
  }
}

@keyframes animate-svg-fill-5 {
  0% {
    fill: transparent;
  }

  100% {
    fill: rgb(0, 0, 0);
  }
}

.E-CORE {
  -webkit-animation: animate-svg-stroke-5 1s cubic-bezier(0.47, 0, 0.745, 0.715) 0.48s both,
                       animate-svg-fill-5 0.7s cubic-bezier(0.47, 0, 0.745, 0.715) 1.2000000000000002s both;
          animation: animate-svg-stroke-5 1s cubic-bezier(0.47, 0, 0.745, 0.715) 0.48s both,
               animate-svg-fill-5 0.7s cubic-bezier(0.47, 0, 0.745, 0.715) 1.2000000000000002s both;
}

  </style>
</svg>